<svg id="color" enable-background="new 0 0 24 24" height="20" viewBox="0 0 24 24" width="20" xmlns="http://www.w3.org/2000/svg"><path d="m19.25 24h-14.5c-1.517 0-2.75-1.233-2.75-2.75v-18.5c0-1.517 1.233-2.75 2.75-2.75h14.5c1.517 0 2.75 1.233 2.75 2.75v18.5c0 1.517-1.233 2.75-2.75 2.75z" fill="#03a9f4"/><g fill="#f5f5f5"><path d="m8 14c-.414 0-.75-.336-.75-.75v-2.5c0-.414.336-.75.75-.75s.75.336.75.75v2.5c0 .414-.336.75-.75.75z"/><path d="m9.25 12.75h-2.5c-.414 0-.75-.336-.75-.75s.336-.75.75-.75h2.5c.414 0 .75.336.75.75s-.336.75-.75.75z"/><path d="m17.25 13h-2.5c-.414 0-.75-.336-.75-.75s.336-.75.75-.75h2.5c.414 0 .75.336.75.75s-.336.75-.75.75z"/><path d="m17.25 17.5h-2.5c-.414 0-.75-.336-.75-.75s.336-.75.75-.75h2.5c.414 0 .75.336.75.75s-.336.75-.75.75z"/><path d="m17.25 20h-2.5c-.414 0-.75-.336-.75-.75s.336-.75.75-.75h2.5c.414 0 .75.336.75.75s-.336.75-.75.75z"/><path d="m6.75 20c-.192 0-.384-.073-.53-.22-.293-.293-.293-.768 0-1.061l2.5-2.5c.293-.293.768-.293 1.061 0s.293.768 0 1.061l-2.5 2.5c-.147.147-.339.22-.531.22z"/><path d="m9.25 20c-.192 0-.384-.073-.53-.22l-2.5-2.5c-.293-.293-.293-.768 0-1.061s.768-.293 1.061 0l2.5 2.5c.293.293.293.768 0 1.061-.147.147-.339.22-.531.22z"/><path d="m17.25 8h-10.5c-.965 0-1.75-.785-1.75-1.75v-1.5c0-.965.785-1.75 1.75-1.75h10.5c.965 0 1.75.785 1.75 1.75v1.5c0 .965-.785 1.75-1.75 1.75z"/></g></svg>
