<?xml version="1.0" encoding="utf-8"?>
<!-- Generator: Adobe Illustrator 23.0.3, SVG Export Plug-In . SVG Version: 6.00 Build 0)  -->
<svg version="1.1" id="Capa_1" xmlns="http://www.w3.org/2000/svg" xmlns:xlink="http://www.w3.org/1999/xlink" x="0px" y="0px"
	 width="16" height="19.2" viewBox="0 0 20.1 24" style="enable-background:new 0 0 20.1 24;" xml:space="preserve">
<style type="text/css">
	.st0{fill:url(#SVGID_1_);}
</style>
<linearGradient id="SVGID_1_" gradientUnits="userSpaceOnUse" x1="6209.7329" y1="2859.3723" x2="6209.7329" y2="3371.2188" gradientTransform="matrix(4.688907e-02 0 0 4.688907e-02 -281.1339 -134.0733)">
	<stop  offset="0" style="stop-color:#2AF598"/>
	<stop  offset="1" style="stop-color:#009EFD"/>
</linearGradient>
<path class="st0" d="M10,24l-0.4-0.2c-0.1,0-2.4-1.1-4.8-3.1c-1.4-1.2-2.5-2.5-3.3-3.8c-1-1.7-1.6-3.5-1.6-5.4V5.8
	c0-1.4,1-2.5,2.3-2.8c2.3-0.4,4.4-1.6,5.4-2.4C8.4,0.2,9.2,0,10,0c0.8,0,1.6,0.2,2.3,0.7c1,0.7,3.1,1.9,5.4,2.4l0,0
	c1.3,0.2,2.3,1.4,2.3,2.8v5.7c0,1.9-0.5,3.7-1.6,5.4c-0.8,1.3-1.9,2.6-3.3,3.8c-2.4,2-4.7,3.1-4.8,3.1L10,24z M10,1.9
	C9.6,1.9,9.2,2,8.8,2.3C7.6,3,5.3,4.4,2.7,4.9C2.2,5,1.9,5.4,1.9,5.8v5.7c0,5.9,6.5,9.6,8.2,10.4c0.7-0.4,2.4-1.3,4-2.7
	c2.8-2.4,4.2-5,4.2-7.8V5.8c0-0.5-0.3-0.8-0.8-0.9l0,0c-2.6-0.5-5-1.9-6.1-2.6C10.9,2,10.5,1.9,10,1.9z M16,8.3L14.6,7l-6.1,6.8
	l-3.2-3l-1.3,1.4l4.6,4.3L16,8.3z"/>
</svg>
